<mxfile host="65bd71144e">
    <diagram id="YQEeyEsAXImCTdxHAv1M" name="第 1 页">
        <mxGraphModel dx="1172" dy="791" grid="0" gridSize="10" guides="1" tooltips="1" connect="1" arrows="1" fold="1" page="1" pageScale="1" pageWidth="2339" pageHeight="3300" background="#ffffff" math="0" shadow="0">
            <root>
                <mxCell id="0"/>
                <mxCell id="1" parent="0"/>
                <mxCell id="67" value="" style="rounded=1;whiteSpace=wrap;html=1;fontSize=16;fillColor=#E0D3C3;container=0;" parent="1" vertex="1">
                    <mxGeometry x="391" y="115" width="191" height="580" as="geometry"/>
                </mxCell>
                <mxCell id="80" value="DataBlock" style="rounded=1;whiteSpace=wrap;html=1;fontSize=16;fillColor=#D8B29C;fontColor=default;labelBackgroundColor=none;container=0;" parent="1" vertex="1">
                    <mxGeometry x="419.5" y="138.5" width="134" height="59" as="geometry"/>
                </mxCell>
                <mxCell id="83" value="DataBlock" style="rounded=1;whiteSpace=wrap;html=1;fontSize=16;fillColor=#D8B29C;fontColor=default;labelBackgroundColor=none;container=0;" vertex="1" parent="1">
                    <mxGeometry x="422" y="217.5" width="134" height="59" as="geometry"/>
                </mxCell>
                <mxCell id="84" value="MetaBlock" style="rounded=1;whiteSpace=wrap;html=1;fontSize=16;fillColor=#8D91AA;fontColor=default;labelBackgroundColor=none;container=0;" vertex="1" parent="1">
                    <mxGeometry x="425" y="296.5" width="134" height="59" as="geometry"/>
                </mxCell>
                <mxCell id="85" value="MetaBlock" style="rounded=1;whiteSpace=wrap;html=1;fontSize=16;fillColor=#8D91AA;fontColor=default;labelBackgroundColor=none;container=0;" vertex="1" parent="1">
                    <mxGeometry x="425" y="375.5" width="134" height="59" as="geometry"/>
                </mxCell>
                <mxCell id="86" value="MetaIndexBlock" style="rounded=1;whiteSpace=wrap;html=1;fontSize=16;fillColor=#ACD4D6;fontColor=default;labelBackgroundColor=none;container=0;" vertex="1" parent="1">
                    <mxGeometry x="425" y="454.5" width="134" height="59" as="geometry"/>
                </mxCell>
                <mxCell id="87" value="IndexBlock" style="rounded=1;whiteSpace=wrap;html=1;fontSize=16;fillColor=#C3BAB1;fontColor=default;labelBackgroundColor=none;container=0;" vertex="1" parent="1">
                    <mxGeometry x="427" y="533.5" width="134" height="59" as="geometry"/>
                </mxCell>
                <mxCell id="88" value="Footer" style="rounded=1;whiteSpace=wrap;html=1;fontSize=16;fillColor=#4A475C;fontColor=default;labelBackgroundColor=none;container=0;" vertex="1" parent="1">
                    <mxGeometry x="427" y="612.5" width="134" height="59" as="geometry"/>
                </mxCell>
                <mxCell id="91" value="" style="rounded=1;whiteSpace=wrap;html=1;fontSize=16;fillColor=#E0D3C3;container=0;" vertex="1" parent="1">
                    <mxGeometry x="767" y="307" width="949" height="111" as="geometry"/>
                </mxCell>
                <mxCell id="92" value="DataBlock" style="rounded=1;whiteSpace=wrap;html=1;fontSize=16;fillColor=#D8B29C;fontColor=default;labelBackgroundColor=none;container=0;" vertex="1" parent="1">
                    <mxGeometry x="786" y="333" width="134" height="59" as="geometry"/>
                </mxCell>
                <mxCell id="93" value="DataBlock" style="rounded=1;whiteSpace=wrap;html=1;fontSize=16;fillColor=#D8B29C;fontColor=default;labelBackgroundColor=none;container=0;" vertex="1" parent="1">
                    <mxGeometry x="940" y="333" width="134" height="59" as="geometry"/>
                </mxCell>
                <mxCell id="94" value="MetaBlock" style="rounded=1;whiteSpace=wrap;html=1;fontSize=16;fillColor=#8D91AA;fontColor=default;labelBackgroundColor=none;container=0;" vertex="1" parent="1">
                    <mxGeometry x="1094" y="333" width="134" height="59" as="geometry"/>
                </mxCell>
                <mxCell id="96" value="MetaIndexBlock" style="rounded=1;whiteSpace=wrap;html=1;fontSize=16;fillColor=#ACD4D6;fontColor=default;labelBackgroundColor=none;container=0;" vertex="1" parent="1">
                    <mxGeometry x="1248" y="333" width="134" height="59" as="geometry"/>
                </mxCell>
                <mxCell id="97" value="IndexBlock" style="rounded=1;whiteSpace=wrap;html=1;fontSize=16;fillColor=#C3BAB1;fontColor=default;labelBackgroundColor=none;container=0;" vertex="1" parent="1">
                    <mxGeometry x="1402" y="333" width="134" height="59" as="geometry"/>
                </mxCell>
                <mxCell id="98" value="Footer" style="rounded=1;whiteSpace=wrap;html=1;fontSize=16;fillColor=#4A475C;fontColor=default;labelBackgroundColor=none;container=0;" vertex="1" parent="1">
                    <mxGeometry x="1556" y="336" width="134" height="59" as="geometry"/>
                </mxCell>
            </root>
        </mxGraphModel>
    </diagram>
</mxfile>